<?xml version="1.0" encoding="UTF-8" standalone="no"?><!DOCTYPE svg PUBLIC "-//W3C//DTD SVG 1.1//EN" "http://www.w3.org/Graphics/SVG/1.1/DTD/svg11.dtd"><svg width="100%" height="100%" viewBox="0 0 1000 200" version="1.1" xmlns="http://www.w3.org/2000/svg" xmlns:xlink="http://www.w3.org/1999/xlink" xml:space="preserve" xmlns:serif="http://www.serif.com/" style="fill-rule:evenodd;clip-rule:evenodd;stroke-linejoin:round;stroke-miterlimit:1.41421;"><rect id="Plan-de-travail1" serif:id="Plan de travail1" x="0" y="0" width="1000" height="200" style="fill:none;"/><clipPath id="_clip1"><rect id="Plan-de-travail11" serif:id="Plan de travail1" x="0" y="0" width="1000" height="200"/></clipPath><g clip-path="url(#_clip1)"><path d="M960,0c68.267,-0.267 217.6,56.397 217.6,89.6c0,66.133 -217.6,307.2 -217.6,307.2l-960,3.2c0,0 -217.6,-348.533 -217.6,-400c0,-33.684 149.333,91.2 217.6,91.2c68.267,0 128,-91.2 192,-91.2c64,0 128,91.2 192,91.2c64,0 128,-91.2 192,-91.2c64,0 128,91.2 192,91.2c64,0 123.733,-90.933 192,-91.2Z" style="fill:url(#_Linear2);"/></g><defs><linearGradient id="_Linear2" x1="0" y1="0" x2="1" y2="0" gradientUnits="userSpaceOnUse" gradientTransform="matrix(1.83697e-14,300,-50,3.06162e-15,975,110)"><stop offset="0" style="stop-color:#fe7bb1;stop-opacity:0.490196"/><stop offset="0.18" style="stop-color:#d8546f;stop-opacity:0.282353"/><stop offset="0.39" style="stop-color:#b42f31;stop-opacity:0.0862745"/><stop offset="1" style="stop-color:#a51f16;stop-opacity:0"/></linearGradient></defs></svg>