<?xml version="1.0" encoding="UTF-8" standalone="no"?><!DOCTYPE svg PUBLIC "-//W3C//DTD SVG 1.1//EN" "http://www.w3.org/Graphics/SVG/1.1/DTD/svg11.dtd"><svg width="100%" height="100%" viewBox="0 0 98 98" version="1.1" xmlns="http://www.w3.org/2000/svg" xmlns:xlink="http://www.w3.org/1999/xlink" xml:space="preserve" xmlns:serif="http://www.serif.com/" style="fill-rule:evenodd;clip-rule:evenodd;stroke-linejoin:round;stroke-miterlimit:1.41421;"><path d="M5.901,32.037c-3.26,0 -5.901,-2.641 -5.901,-5.902c0,-3.26 2.641,-5.9 5.901,-5.9c3.259,0 5.901,2.64 5.901,5.9c0,3.261 -2.642,5.902 -5.901,5.902m14.333,15.177c-3.258,0 -5.901,-2.644 -5.901,-5.902c0,-3.259 2.643,-5.902 5.901,-5.902c3.26,0 5.902,2.643 5.902,5.902c0,3.258 -2.642,5.902 -5.902,5.902m0,-15.177c-3.258,0 -5.901,-2.641 -5.901,-5.902c0,-3.26 2.643,-5.9 5.901,-5.9c3.26,0 5.902,2.64 5.902,5.9c0,3.261 -2.642,5.902 -5.902,5.902m14.333,30.353c-3.259,0 -5.902,-2.643 -5.902,-5.902c0,-3.262 2.643,-5.9 5.902,-5.9c3.26,0 5.903,2.638 5.903,5.9c0,3.259 -2.643,5.902 -5.903,5.902m0,-15.176c-3.259,0 -5.902,-2.644 -5.902,-5.902c0,-3.259 2.643,-5.902 5.902,-5.902c3.26,0 5.903,2.643 5.903,5.902c0,3.258 -2.643,5.902 -5.903,5.902m0,-15.177c-3.259,0 -5.902,-2.641 -5.902,-5.902c0,-3.26 2.643,-5.9 5.902,-5.9c3.26,0 5.903,2.64 5.903,5.9c0,3.261 -2.643,5.902 -5.903,5.902m14.333,45.528c-3.26,0 -5.901,-2.642 -5.901,-5.9c0,-3.26 2.641,-5.903 5.901,-5.903c3.259,0 5.902,2.643 5.902,5.903c0,3.258 -2.643,5.9 -5.902,5.9m0,-15.175c-3.26,0 -5.901,-2.643 -5.901,-5.902c0,-3.262 2.641,-5.9 5.901,-5.9c3.259,0 5.902,2.638 5.902,5.9c0,3.259 -2.643,5.902 -5.902,5.902m0,-15.176c-3.26,0 -5.901,-2.644 -5.901,-5.902c0,-3.259 2.641,-5.902 5.901,-5.902c3.259,0 5.902,2.643 5.902,5.902c0,3.258 -2.643,5.902 -5.902,5.902m0,-15.177c-3.26,0 -5.901,-2.641 -5.901,-5.902c0,-3.26 2.641,-5.9 5.901,-5.9c3.259,0 5.902,2.64 5.902,5.9c0,3.261 -2.643,5.902 -5.902,5.902m14.333,30.353c-3.26,0 -5.903,-2.643 -5.903,-5.902c0,-3.262 2.643,-5.9 5.903,-5.9c3.26,0 5.902,2.638 5.902,5.9c0,3.259 -2.642,5.902 -5.902,5.902m0,-15.176c-3.26,0 -5.903,-2.644 -5.903,-5.902c0,-3.259 2.643,-5.902 5.903,-5.902c3.26,0 5.902,2.643 5.902,5.902c0,3.258 -2.642,5.902 -5.902,5.902m0,-15.177c-3.26,0 -5.903,-2.641 -5.903,-5.902c0,-3.26 2.643,-5.9 5.903,-5.9c3.26,0 5.902,2.64 5.902,5.9c0,3.261 -2.642,5.902 -5.902,5.902m14.333,15.177c-3.26,0 -5.902,-2.644 -5.902,-5.902c0,-3.259 2.642,-5.902 5.902,-5.902c3.258,0 5.902,2.643 5.902,5.902c0,3.258 -2.644,5.902 -5.902,5.902m0,-15.177c-3.26,0 -5.902,-2.641 -5.902,-5.902c0,-3.26 2.642,-5.9 5.902,-5.9c3.258,0 5.902,2.64 5.902,5.9c0,3.261 -2.644,5.902 -5.902,5.902m14.332,0c-3.257,0 -5.902,-2.641 -5.902,-5.902c0,-3.26 2.645,-5.9 5.902,-5.9c3.261,0 5.902,2.64 5.902,5.9c0,3.261 -2.641,5.902 -5.902,5.902" style="fill-rule:nonzero;"/></svg>