<?xml version="1.0" encoding="UTF-8" standalone="no"?><!DOCTYPE svg PUBLIC "-//W3C//DTD SVG 1.1//EN" "http://www.w3.org/Graphics/SVG/1.1/DTD/svg11.dtd"><svg width="100%" height="100%" viewBox="0 0 100 100" version="1.1" xmlns="http://www.w3.org/2000/svg" xmlns:xlink="http://www.w3.org/1999/xlink" xml:space="preserve" xmlns:serif="http://www.serif.com/" style="fill-rule:evenodd;clip-rule:evenodd;stroke-linejoin:round;stroke-miterlimit:1.41421;"><path d="M73,50l0,23l-46,0l0,-46l23,0l0,-4.6l-23,0c-2.529,0 -4.6,2.07 -4.6,4.6l0,46c0,2.529 2.071,4.6 4.6,4.6l46,0c2.529,0 4.6,-2.071 4.6,-4.6l0,-23l-4.6,0Z" style="fill-rule:nonzero;"/><path d="M77.6,40.8l-0.002,-16.101c0.002,-1.269 -1.029,-2.299 -2.298,-2.299l-16.1,0l0,4.599l10.545,0l-19.745,19.748l3.253,3.253l19.747,-19.744l0,10.544l4.6,0l0,0Z" style="fill-rule:nonzero;"/></svg>