<?xml version="1.0" encoding="UTF-8" standalone="no"?><!DOCTYPE svg PUBLIC "-//W3C//DTD SVG 1.1//EN" "http://www.w3.org/Graphics/SVG/1.1/DTD/svg11.dtd"><svg width="100%" height="100%" viewBox="0 0 100 100" version="1.1" xmlns="http://www.w3.org/2000/svg" xmlns:xlink="http://www.w3.org/1999/xlink" xml:space="preserve" xmlns:serif="http://www.serif.com/" style="fill-rule:evenodd;clip-rule:evenodd;stroke-linejoin:round;stroke-miterlimit:1.41421;"><path d="M93.484,21.371c0,-7.857 -6.39,-14.247 -14.247,-14.247c-7.858,0 -14.248,6.39 -14.248,14.247c0,5.25 2.885,9.795 7.124,12.267l0,1.98c0,3.925 -3.191,7.124 -7.124,7.124l-17.809,0c-6.589,0 -12.708,2.009 -17.809,5.428l0,-21.656c4.239,-2.472 7.124,-7.017 7.124,-12.267c0,-7.857 -6.39,-14.247 -14.248,-14.247c-7.857,0 -14.247,6.39 -14.247,14.247c0,5.25 2.885,9.795 7.124,12.267l0,46.703c-4.239,2.472 -7.124,7.017 -7.124,12.267c0,7.857 6.39,14.247 14.247,14.247c7.858,0 14.248,-6.39 14.248,-14.247c0,-5.186 -2.814,-9.688 -6.974,-12.182c0.776,-9.111 8.356,-16.313 17.659,-16.313l17.809,0c11.783,0 21.371,-9.588 21.371,-21.371l0,-1.98c4.239,-2.472 7.124,-7.017 7.124,-12.267Zm-71.237,-14.247c3.925,0 7.124,3.198 7.124,7.123c0,3.925 -3.199,7.124 -7.124,7.124c-3.925,0 -7.123,-3.199 -7.123,-7.124c0,-3.925 3.198,-7.123 7.123,-7.123Zm0,85.484c-3.925,0 -7.123,-3.192 -7.123,-7.124c0,-3.932 3.198,-7.124 7.123,-7.124c3.925,0 7.124,3.192 7.124,7.124c0,3.932 -3.199,7.124 -7.124,7.124Zm56.99,-64.113c-3.933,0 -7.124,-3.199 -7.124,-7.124c0,-3.925 3.191,-7.124 7.124,-7.124c3.932,0 7.123,3.199 7.123,7.124c0,3.925 -3.191,7.124 -7.123,7.124Z" style="fill-rule:nonzero;"/></svg>