<?xml version="1.0" encoding="UTF-8" standalone="no"?><!DOCTYPE svg PUBLIC "-//W3C//DTD SVG 1.1//EN" "http://www.w3.org/Graphics/SVG/1.1/DTD/svg11.dtd"><svg width="100%" height="100%" viewBox="0 0 100 100" version="1.1" xmlns="http://www.w3.org/2000/svg" xmlns:xlink="http://www.w3.org/1999/xlink" xml:space="preserve" xmlns:serif="http://www.serif.com/" style="fill-rule:evenodd;clip-rule:evenodd;stroke-linejoin:round;stroke-miterlimit:1.41421;"><path d="M97.291,15.127l-94.582,0c-1.486,0 -2.709,1.223 -2.709,2.709l0,64.328c0,1.486 1.223,2.709 2.709,2.709l94.582,0c1.486,0 2.709,-1.223 2.709,-2.709l0,-64.328c0,-1.486 -1.223,-2.709 -2.709,-2.709Zm-2.708,64.329l-89.166,0l0,-58.912l89.166,0l0,58.912Z" style="fill-rule:nonzero;"/><path d="M20.125,62.73c0.507,0.509 1.197,0.795 1.916,0.795c0.718,0 1.408,-0.286 1.916,-0.795l10.834,-10.834c0.509,-0.508 0.795,-1.198 0.795,-1.916c0,-0.719 -0.286,-1.409 -0.795,-1.917l-10.834,-10.834c-0.508,-0.508 -1.198,-0.794 -1.916,-0.794c-1.487,0 -2.71,1.224 -2.71,2.71c0,0.719 0.286,1.409 0.794,1.917l8.884,8.938l-8.898,8.898c-0.504,0.507 -0.788,1.194 -0.788,1.909c0,0.722 0.289,1.415 0.802,1.923Z" style="fill-rule:nonzero;"/><path d="M39.68,63.543l21.154,0c1.486,0 2.709,-1.223 2.709,-2.709c0,-1.486 -1.223,-2.708 -2.709,-2.708l-21.154,0c-1.485,0 -2.708,1.222 -2.708,2.708c0,1.486 1.223,2.709 2.708,2.709Z" style="fill-rule:nonzero;"/></svg>