<?xml version="1.0" encoding="UTF-8" standalone="no"?><!DOCTYPE svg PUBLIC "-//W3C//DTD SVG 1.1//EN" "http://www.w3.org/Graphics/SVG/1.1/DTD/svg11.dtd"><svg width="100%" height="100%" viewBox="0 0 46 63" version="1.1" xmlns="http://www.w3.org/2000/svg" xmlns:xlink="http://www.w3.org/1999/xlink" xml:space="preserve" xmlns:serif="http://www.serif.com/" style="fill-rule:evenodd;clip-rule:evenodd;stroke-linejoin:round;stroke-miterlimit:1.41421;"><path d="M31.425,20.08l1.449,0l0,-2.76l-19.941,0l0,2.76l1.725,0c0.207,5.175 2.139,8.625 5.451,9.729l0,2.898c-3.243,1.104 -5.175,4.416 -5.451,9.522l-1.725,0l0,2.76l19.941,0l0,-2.76l-1.449,0c-0.276,-5.106 -2.139,-8.487 -5.451,-9.522l0,-2.967c3.312,-1.104 5.175,-4.485 5.451,-9.66Zm-6.417,13.731c3.657,0.897 4.761,4.83 4.899,8.349l-1.38,0l-11.04,0l-1.587,0c0.207,-3.519 1.242,-7.452 4.899,-8.349l0.483,-0.138l0,-4.968l-0.483,-0.138c-3.726,-0.966 -4.761,-4.968 -4.899,-8.556l14.007,0c-0.138,3.588 -1.173,7.59 -4.899,8.556l-0.483,0.138l0,4.968l0.483,0.138Zm-7.107,-8.28c0,0 1.38,2.76 4.899,2.76c3.519,0 5.037,-2.76 5.037,-2.76l-9.936,0Z" style="fill-rule:nonzero;"/><path d="M34.737,0.07l-34.638,0l0,62.1l45.54,0l0,-51.198l-10.902,-10.902Zm7.452,58.65l-38.64,0l0,-55.2l29.118,0l0,10.212l9.522,0l0,44.988Zm-2.277,-48.438l-3.795,0l0,-4.071l3.795,4.071Z" style="fill-rule:nonzero;"/></svg>