<svg version="1" xmlns="http://www.w3.org/2000/svg" width="933.333" height="933.333" viewBox="0 0 700.000000 700.000000"><path d="M342.5 40.4c-1.6.7-4 2.4-5.1 3.7-1.9 2.1-297.5 513.3-304.6 526.8-5.7 10.8-2 21.8 8.7 26 2.3.8 77.3 1.1 310 .9l307-.3 3.7-2.3c4.4-2.8 7.8-9.2 7.8-14.9 0-2.6-1.1-6.1-2.8-9.4-7.3-13.7-302.7-524.7-304.6-526.7-1.1-1.3-3.3-3-4.8-3.8-3.4-1.8-11.3-1.7-15.3 0zm48.4 120.9c22.3 38.6 69 119.7 103.9 180.2 34.9 60.5 64 111.2 64.8 112.7l1.5 2.8H458.2l-44.5-77.8c-60.3-105.4-59.9-104.7-89.1-155.5l-25.7-44.8 25.3-43.9c13.9-24.2 25.5-44 25.8-44 .3 0 18.7 31.6 40.9 70.3zM384 397.5l33.9 59-69.1.3c-38 .1-69.3 0-69.5-.2-.6-.6 69.1-118.5 70-118.3.4.1 16 26.8 34.7 59.2zm-207.7 84.4c18.5 11.7 33.7 21.7 33.7 22.2s-7.6 13.8-16.9 29.6l-16.9 28.8-49.1.3c-27 .1-49.1 0-49.1-.4s55.4-96.2 59.1-102.2c1.2-1.9 1.6-2 3.4-.8 1.1.7 17.2 10.8 35.8 22.5z"/></svg>