<?xml version="1.0" encoding="UTF-8" standalone="no"?>
<!DOCTYPE svg PUBLIC "-//W3C//DTD SVG 1.1//EN" "http://www.w3.org/Graphics/SVG/1.1/DTD/svg11.dtd">
<svg xmlns="http://www.w3.org/2000/svg" xmlns:serif="http://www.serif.com/" xmlns:xlink="http://www.w3.org/1999/xlink" width="100%" height="100%" style="fill-rule:evenodd;clip-rule:evenodd;stroke-linejoin:round;stroke-miterlimit:1.41421" version="1.1" viewBox="0 0 1920 1080" xml:space="preserve">
    <rect id="Plan-de-travail1" width="1920" height="1080" x="0" y="0" style="fill:none" serif:id="Plan de travail1"/>
    <clipPath id="_clip1">
        <rect id="Plan-de-travail11" width="1920" height="1080" x="0" y="0" serif:id="Plan de travail1"/>
    </clipPath>
    <g clip-path="url(#_clip1)">
        <g id="mountains">
            <clipPath id="_clip2">
                <rect id="sunset-mountains" width="2259.73" height="451.947" x="-107.367" y="756.553"/>
            </clipPath>
            <g clip-path="url(#_clip2)">
                <rect id="Plan-de-travail12" width="2259.73" height="451.947" x="-107.367" y="756.553" style="fill:none" serif:id="Plan de travail1"/>
                <path d="M2061.98,756.553c154.265,-0.603 491.718,127.442 491.718,202.472c0,149.443 -491.718,694.191 -491.718,694.191l-2169.35,7.231c0,0 -491.718,-787.592 -491.718,-903.894c0,-76.117 337.453,206.088 491.718,206.088c154.265,0 289.246,-206.088 433.869,-206.088c144.623,0 289.246,206.088 433.869,206.088c144.623,0 289.246,-206.088 433.869,-206.088c144.623,0 289.246,206.088 433.869,206.088c144.623,0 279.603,-205.485 433.869,-206.088Z" style="fill:url(#_Linear3)"/>
            </g>
        </g>
        <g id="plane">
            <rect id="Plan-de-travail13" width="220.838" height="111.033" x="41" y="312.25" style="fill:none" serif:id="Plan de travail1"/>
            <path id="Extérieur" d="M48.729,331.315l203.969,18.736l-186.143,63.352l-4.368,-73.165l-13.458,-8.923Z" style="fill:url(#_Linear4)"/>
            <path id="Ombre" d="M69.791,363.296l50.25,-11.494l-34.789,0.459l-14.17,-8.956l-1.291,19.991Z" style="fill:#4b4b4b;fill-opacity:0.286275"/>
            <path id="Pli" d="M62.187,340.238l4.368,73.165l4.527,-70.098l14.17,8.956l167.446,-2.21l-190.511,-9.813" style="fill-opacity:0.372549"/>
        </g>
        <g id="sun">
            <circle cx="1738.87" cy="185.617" r="113.145" style="fill-opacity:0.0705882"/>
            <rect id="Plan-de-travail14" width="269.75" height="269.75" x="1595.75" y="42.5" style="fill:none" serif:id="Plan de travail1"/>
            <path id="Plan-de-travail15" d="M1843.77,177.375c0,62.447 -50.698,113.145 -113.145,113.145c-62.447,0 -113.145,-50.698 -113.145,-113.145c0,-62.447 50.698,-113.145 113.145,-113.145c62.447,0 113.145,50.698 113.145,113.145Z" style="fill:url(#_Linear5)" serif:id="Plan de travail1"/>
        </g>
    </g>
    <defs>
        <linearGradient id="_Linear3" x1="0" x2="1" y1="0" y2="0" gradientTransform="matrix(4.15106e-14,677.92,-677.92,4.15106e-14,2095.87,1005.12)" gradientUnits="userSpaceOnUse">
            <stop offset="0" style="stop-color:#fe7bb1;stop-opacity:0.486275"/>
            <stop offset="0.18" style="stop-color:#d8546f;stop-opacity:0.282353"/>
            <stop offset="0.39" style="stop-color:#b42f31;stop-opacity:0.0823529"/>
            <stop offset="1" style="stop-color:#a51f16;stop-opacity:0"/>
        </linearGradient>
        <linearGradient id="_Linear4" x1="0" x2="1" y1="0" y2="0" gradientTransform="matrix(-1.5336,91.2606,-91.2606,-1.5336,136.975,322.142)" gradientUnits="userSpaceOnUse">
            <stop offset="0" style="stop-color:#00b7dd;stop-opacity:1"/>
            <stop offset="0.44" style="stop-color:#00a1df;stop-opacity:1"/>
            <stop offset="1" style="stop-color:#006de3;stop-opacity:1"/>
        </linearGradient>
        <linearGradient id="_Linear5" x1="0" x2="1" y1="0" y2="0" gradientTransform="matrix(-3.63903e-14,226.291,-226.291,-3.63903e-14,1730.63,64.2299)" gradientUnits="userSpaceOnUse">
            <stop offset="0" style="stop-color:#ff0045;stop-opacity:1"/>
            <stop offset="1" style="stop-color:#ff73a0;stop-opacity:1"/>
        </linearGradient>
    </defs>
</svg>
