<?xml version="1.0" encoding="UTF-8" standalone="no"?><!DOCTYPE svg PUBLIC "-//W3C//DTD SVG 1.1//EN" "http://www.w3.org/Graphics/SVG/1.1/DTD/svg11.dtd"><svg width="100%" height="100%" viewBox="0 0 200 200" version="1.1" xmlns="http://www.w3.org/2000/svg" xmlns:xlink="http://www.w3.org/1999/xlink" xml:space="preserve" xmlns:serif="http://www.serif.com/" style="fill-rule:evenodd;clip-rule:evenodd;stroke-linejoin:round;stroke-miterlimit:12;"><rect id="Plan-de-travail1" serif:id="Plan de travail1" x="0" y="0" width="200" height="200" style="fill:none;"/><g id="Plan-de-travail11" serif:id="Plan de travail1"><g><path d="M186.603,165.906l-19.206,-35.403l-136.841,-0.099l0,35.502l156.047,0Z" style="fill:url(#_Linear1);"/><path d="M120.429,51.29l-20.429,-35.384l-86.603,151.815l37.977,0l69.055,-116.431Z" style="fill:url(#_Linear2);"/><path d="M130.784,130.477l36.221,0.026l-66.07,-112.978l-18.383,28.603l48.232,84.349Z" style="fill:url(#_Linear3);"/><path d="M100.107,76.846l-5.859,9.8l47.94,83.35l8.428,-4.847l-50.509,-88.303Z" style="fill:#c88700;"/><path d="M150.616,165.149l-8.428,4.847l-47.94,-83.35l5.859,-9.8l50.509,88.303Z"/><path d="M105.616,86.478l-48.013,81.243l-8.366,-4.953l50.87,-85.922l5.509,9.632Z"/><path d="M100,15.906l86.603,150l-86.603,0l-86.603,0l43.302,-75l43.301,-75Z" style="fill:none;stroke:#000;stroke-width:9.89px;"/></g></g><defs><linearGradient id="_Linear1" x1="0" y1="0" x2="1" y2="0" gradientUnits="userSpaceOnUse" gradientTransform="matrix(-113.5,2.37338,-2.37338,-113.5,171.389,145.782)"><stop offset="0" style="stop-color:#ff1900;stop-opacity:1"/><stop offset="1" style="stop-color:#98003c;stop-opacity:1"/></linearGradient><linearGradient id="_Linear2" x1="0" y1="0" x2="1" y2="0" gradientUnits="userSpaceOnUse" gradientTransform="matrix(-68.4443,108.339,-108.339,-68.4443,96.1004,59.3818)"><stop offset="0" style="stop-color:#003398;stop-opacity:1"/><stop offset="1" style="stop-color:#44b3ff;stop-opacity:1"/></linearGradient><linearGradient id="_Linear3" x1="0" y1="0" x2="1" y2="0" gradientUnits="userSpaceOnUse" gradientTransform="matrix(53.9211,97.4221,-97.4221,53.9211,92.2236,37.5596)"><stop offset="0" style="stop-color:#ffe23b;stop-opacity:1"/><stop offset="1" style="stop-color:#fa7f20;stop-opacity:1"/></linearGradient></defs></svg>